<svg xmlns="http://www.w3.org/2000/svg" viewBox="0 0 90 110" width="90" height="110">
  <!-- Logo paths with transparent background -->
  <g transform="translate(7.5, 10)">
    <!-- Main logo shape with #388FEF instead of original blue -->
    <path d="M75.39 29.36v21.47c.09 9.44-2.41 18.1-8.33 25.46a37.54 37.54 0 0 1-22.53 13.59 35.64 35.64 0 0 1-24.82-4A36.37 36.37 0 0 1 2.07 64.6c-2.95-9-1.83-18.23-2-27.39 0-1.81 1.31-2.58 2.82-2.64a198 198 0 0 1 11.43-.07c1.73 0 2.4 1.21 2.43 2.91.09 5.39.55 10.79.33 16.17-.36 8.9 6.54 17.42 15 19.75a21.2 21.2 0 0 0 23-8.68 19.84 19.84 0 0 0 3.22-10.52c.61-16.83.27-33.68.4-50.52C58.73.29 59 0 62.18 0h9.31c3.42 0 3.89.47 3.89 3.83v25.52z" fill="#388FEF"/>
    <!-- Inner element with #388FEF as well -->
    <path d="M45.84 37.25v16c0 5-3 7.93-8.07 7.94-4.77 0-8.13-3.22-8.15-8v-32.4c0-2.76.55-3.41 3.3-3.5 3.33-.11 6.67 0 10 0 2 0 3 .91 2.94 3.08-.09 5.64 0 11.28 0 16.92z" fill="#388FEF"/>
  </g>
</svg>